Coordinates
version=1
nRows=11
nColumns=63
inDegrees=yes

Units are S.I. units (second, meters, Newtons, ...)
If the header above contains a line with 'inDegrees', this indicates whether rotational values are in degrees (yes) or radians (no).

endheader
time	pelvis_tilt	pelvis_list	pelvis_rotation	pelvis_tx	pelvis_ty	pelvis_tz	hip_flexion_r	hip_adduction_r	hip_rotation_r	knee_angle_r	knee_angle_r_beta	ankle_angle_r	subtalar_angle_r	mtp_angle_r	hip_flexion_l	hip_adduction_l	hip_rotation_l	knee_angle_l	knee_angle_l_beta	ankle_angle_l	subtalar_angle_l	mtp_angle_l	L5_S1_Flex_Ext	L5_S1_Lat_Bending	L5_S1_axial_rotation	L4_L5_Flex_Ext	L4_L5_Lat_Bending	L4_L5_axial_rotation	L3_L4_Flex_Ext	L3_L4_Lat_Bending	L3_L4_axial_rotation	L2_L3_Flex_Ext	L2_L3_Lat_Bending	L2_L3_axial_rotation	L1_L2_Flex_Ext	L1_L2_Lat_Bending	L1_L2_axial_rotation	L1_T12_Flex_Ext	L1_T12_Lat_Bending	L1_T12_axial_rotation	Abs_r3	Abs_r2	Abs_r1	Abs_t1	Abs_t2	neck_flexion	neck_bending	neck_rotation	arm_flex_r	arm_add_r	arm_rot_r	elbow_flex_r	pro_sup_r	wrist_flex_r	wrist_dev_r	arm_flex_l	arm_add_l	arm_rot_l	elbow_flex_l	pro_sup_l	wrist_flex_l	wrist_dev_l
      2.73333333	     -3.07481172	      3.25901647	     84.88781188	      0.10858540	      0.48166728	      0.88804957	     -2.06243606	     -4.47072907	      3.76227321	     13.15176704	      0.22954164	     28.35694300	      0.78524937	      0.00000000	     -6.42764552	      3.15004911	      6.41787355	      0.64547933	      0.01126574	     22.18619449	    -10.90082836	      0.00000000	     -0.24697426	     -0.47467572	      2.26748892	     -0.45865590	     -0.63131871	      2.40920698	     -0.40575401	     -1.15412655	      2.40920698	     -0.28226688	     -1.15412655	      1.98405281	     -0.22934030	     -0.96795873	      1.84233475	     -0.14112109	     -0.73527269	      1.70061669	     -1.76411244	     -5.36962671	     12.61109315	      0.00000000	      0.00000000	      6.22267301	      1.41750940	      0.14498187	     61.06847325	     15.93574508	     25.86192913	     67.56561780	     21.54510460	    -14.75070645	     11.45689104	     37.52582831	      5.31905886	      1.38032139	     98.95565509	     84.91950692	    -27.07965083	     -8.96343424
      2.75000000	     -3.23107445	      3.05037524	     85.01622943	      0.10969771	      0.48144182	      0.88787787	     -2.05215017	     -4.52759478	      3.67023078	     12.74886154	      0.22250961	     28.32014283	      0.84815491	      0.00000000	     -6.18134937	      3.18828402	      5.99012040	      0.68057808	      0.01187833	     22.48832789	    -10.07240043	      0.00000000	     -0.22566816	     -0.54572933	      2.48485858	     -0.41908834	     -0.72582001	      2.64016224	     -0.37075022	     -1.32688630	      2.64016224	     -0.25791614	     -1.32688630	      2.17425126	     -0.20955545	     -1.11285125	      2.01894759	     -0.12894679	     -0.84533473	      1.86364393	     -1.61192511	     -6.17339934	     13.82003795	      0.00000000	      0.00000000	      7.02747421	      2.55621005	     -2.68141749	     60.56753663	     17.49209033	     23.51211336	     66.01412687	     34.07376154	    -14.35864298	     10.35452672	     38.58784796	      5.47565087	     -0.77332637	     96.07187886	     86.52775026	    -21.78931314	     -8.67044144
      2.76666667	     -3.13242367	      2.84352843	     85.27138009	      0.10985358	      0.48138176	      0.88759646	     -2.07238899	     -4.36705922	      3.42171510	     12.37401740	      0.21596735	     28.11830182	      0.89874262	      0.00000000	     -5.95732768	      3.00288291	      5.89383985	      0.70257329	      0.01226222	     22.85020458	     -9.51140913	      0.00000000	     -0.20933264	     -0.57830018	      2.66148271	     -0.38875165	     -0.76913924	      2.82782538	     -0.34391260	     -1.40607906	      2.82782538	     -0.23924628	     -1.40607906	      2.32879737	     -0.19438629	     -1.17926973	      2.16245470	     -0.11961267	     -0.89578698	      1.99611203	     -1.49524214	     -6.54184729	     14.80236839	      0.00000000	      0.00000000	      7.69222770	      3.38721497	     -5.50220994	     60.15568606	     18.43078073	     21.73663823	     64.82159917	     53.60414894	    -14.20724623	      8.44813550	     38.94632750	      5.62431135	     -2.31308822	     94.62998598	     87.15813426	    -17.16467215	     -9.53667321
      2.78333333	     -2.80894323	      2.63648142	     85.67227004	      0.10897500	      0.48143343	      0.88724822	     -2.14277221	     -4.02387037	      2.98435492	     11.95977075	      0.20873738	     27.84537068	      1.00360485	      0.00000000	     -5.74059980	      2.62520220	      5.96328239	      0.72853777	      0.01271538	     23.35639749	     -8.97465457	      0.00000000	     -0.19777823	     -0.57253976	      2.77133770	     -0.36729396	     -0.76147789	      2.94454631	     -0.32492986	     -1.39207318	      2.94454631	     -0.22604074	     -1.39207318	      2.42492049	     -0.18365687	     -1.16752309	      2.25171188	     -0.11301048	     -0.88686409	      2.07850328	     -1.41271014	     -6.47668432	     15.41334890	      0.00000000	      0.00000000	      8.20435511	      3.86979863	     -8.00515969	     59.87563551	     18.75258914	     20.59296651	     64.18668177	     74.62607892	    -14.00572727	      6.17671430	     38.70850502	      5.79193846	     -3.56441445	     94.68808045	     87.49209587	    -13.18555827	    -10.57248968
      2.80000000	     -2.08585651	      2.33265798	     86.12496910	      0.10726526	      0.48143618	      0.88706136	     -2.16888779	     -3.28651830	      2.59747444	     11.44078399	      0.19967935	     27.39057282	      1.05005912	      0.00000000	     -5.43275075	      1.86309405	      6.25748630	      0.74220832	      0.01295398	     23.78966157	     -8.79112101	      0.00000000	     -0.17096972	     -0.51479633	      2.81617203	     -0.31750787	     -0.68467912	      2.99218278	     -0.28088615	     -1.25167580	      2.99218278	     -0.19540129	     -1.25167580	      2.46415052	     -0.15876248	     -1.04977268	      2.28813977	     -0.09769210	     -0.79741952	      2.11212902	     -1.22121962	     -5.82347908	     15.66270397	      0.00000000	      0.00000000	      8.67047755	      4.43612384	    -10.47779304	     59.91572552	     17.95931371	     22.01550716	     64.53011363	     78.30320042	    -14.35099500	      2.56520523	     38.28985631	      5.72633874	     -4.05560455	     95.65515077	     87.45153998	    -11.10209545	    -11.41175953
      2.81666667	     -1.79681913	      2.37378955	     86.80455292	      0.10506561	      0.48180933	      0.88674228	     -2.43992444	     -3.07137812	      1.78006202	     11.21960081	      0.19581897	     27.24057732	      1.28441703	      0.00000000	     -5.46872777	      1.59006846	      6.75436683	      0.73723525	      0.01286718	     24.06170120	     -8.54706427	      0.00000000	     -0.19714098	     -0.48759230	      2.79291463	     -0.36611051	     -0.64849776	      2.96747180	     -0.32388292	     -1.18553192	      2.96747180	     -0.22531243	     -1.18553192	      2.44380031	     -0.18306511	     -0.99429822	      2.26924314	     -0.11264636	     -0.75528047	      2.09468598	     -1.40815831	     -5.51574161	     15.53335332	      0.00000000	      0.00000000	      8.42332686	      4.22966420	    -11.64146748	     59.75310465	     17.64516673	     23.10205373	     64.69757188	     85.11505850	    -16.91417276	     -2.77673590	     38.24377741	      5.29805217	     -4.55054215	     96.52501394	     87.60036053	     -7.68453706	    -11.07662000
      2.83333333	     -1.23742408	      2.35632798	     87.44577473	      0.10247542	      0.48204833	      0.88646568	     -2.72782919	     -2.57326912	      1.10784140	     10.85103640	      0.18938631	     26.87040029	      1.39519264	      0.00000000	     -5.44669256	      1.05367525	      7.24296139	      0.73593628	      0.01284451	     24.24102977	     -8.38790983	      0.00000000	     -0.20195854	     -0.42420523	      2.75479884	     -0.37505720	     -0.56419295	      2.92697377	     -0.33179768	     -1.03141259	      2.92697377	     -0.23081841	     -1.03141259	      2.41044899	     -0.18753870	     -0.86503930	      2.23827406	     -0.11539911	     -0.65709390	      2.06609913	     -1.44256964	     -4.79869438	     15.32136473	      0.00000000	      0.00000000	      8.20503437	      4.28039178	    -12.75826993	     59.35550825	     16.81068454	     24.35666635	     66.34710727	     85.98847024	    -17.63027056	     -4.56291597	     38.48088184	      4.54044747	     -3.83018282	     97.09110738	     87.48763672	     -6.80923910	    -10.52101986
      2.85000000	     -0.83741220	      2.41558090	     88.40276633	      0.09953120	      0.48224524	      0.88610606	     -3.20064615	     -2.24435114	     -0.05405557	     10.38837536	      0.18131135	     26.49854081	      1.81559284	      0.00000000	     -5.47548674	      0.66380395	      8.08665226	      0.72120288	      0.01258736	     24.26220890	     -8.31639677	      0.00000000	     -0.21291820	     -0.37308437	      2.62708319	     -0.39541039	     -0.49620221	      2.79127589	     -0.34980331	     -0.90711733	      2.79127589	     -0.24334421	     -0.90711733	      2.29869779	     -0.19771584	     -0.76079364	      2.13450509	     -0.12166146	     -0.57790768	      1.97031239	     -1.52085342	     -4.22040497	     14.61104858	      0.00000000	      0.00000000	      7.91445462	      4.17092313	    -13.49296505	     58.74809873	     16.36350900	     25.33376719	     67.98289941	     85.69425046	    -19.28607094	     -6.52542883	     39.05538422	      3.24363963	     -2.54812740	     97.29247474	     87.56038277	     -6.05033137	     -9.42396668
      2.86666667	     -0.59668974	      2.51924031	     88.62369172	      0.09730748	      0.48232800	      0.88583147	     -3.41659619	     -2.13244248	     -0.28803266	     10.40179917	      0.18154564	     26.26147490	      2.02894009	      0.00000000	     -5.61078148	      0.53895483	      8.15303406	      0.67976136	      0.01186407	     24.13013629	     -8.38254195	      0.00000000	     -0.22653093	     -0.32496078	      2.55698499	     -0.42069059	     -0.43219784	      2.71679655	     -0.37216767	     -0.79010965	      2.71679655	     -0.25890220	     -0.79010965	      2.23736186	     -0.21035662	     -0.66266003	      2.07755030	     -0.12943977	     -0.50336425	      1.91773874	     -1.61808779	     -3.67602136	     14.22118341	      0.00000000	      0.00000000	      7.76003498	      3.95332390	    -13.02145277	     57.95042703	     16.62806075	     25.51305237	     69.45467255	     85.11781733	    -19.55530350	     -6.83872309	     39.63502676	      1.38482642	     -0.94006538	     97.46975983	     87.81990098	     -5.60584858	     -9.01988500
      2.88333333	     -0.46843024	      2.46805039	     90.10740442	      0.09383854	      0.48204735	      0.88521214	     -3.85734020	     -2.31636938	     -5.25421826	     10.04529136	      0.17532341	     26.72483432	      7.08255697	      0.00000000	     -5.49581006	      0.38755961	     11.19683079	      0.62570304	      0.01092058	     23.52563898	    -10.62161024	      0.00000000	     -0.21055285	     -0.30061661	      2.26096668	     -0.39101770	     -0.39982009	      2.40227710	     -0.34591728	     -0.73091922	      2.40227710	     -0.24064086	     -0.73091922	      1.97834585	     -0.19551938	     -0.61301738	      1.83703543	     -0.12030990	     -0.46565512	      1.69572501	     -1.50395797	     -3.40063517	     12.57481840	      0.00000000	      0.00000000	      7.69085584	      4.23537093	    -12.64624689	     57.09821480	     16.81607408	     27.62656499	     71.82771330	     65.82518165	    -23.40420808	     -9.82772374	     40.41308163	     -0.74157053	      1.32751368	     98.00724905	     88.08599800	     -5.97273416	     -6.10455727
      2.90000000	     -0.38581841	      2.44740525	     90.88810667	      0.09130898	      0.48186292	      0.88466581	     -4.08321015	     -2.34835746	     -6.80363587	      9.96351177	      0.17389609	     26.70210539	      8.19542554	      0.00000000	     -5.46870525	      0.33959840	     12.26586135	      0.58111305	      0.01014234	     23.34457426	    -11.08517731	      0.00000000	     -0.20316881	     -0.28324164	      2.07327410	     -0.37730480	     -0.37671139	      2.20285373	     -0.33378604	     -0.68867373	      2.20285373	     -0.23220164	     -0.68867373	      1.81411484	     -0.18866256	     -0.57758636	      1.68453520	     -0.11609066	     -0.43874131	      1.55495557	     -1.45121451	     -3.20408612	     11.53092855	      0.00000000	      0.00000000	      7.72121143	      4.63742299	    -12.04021407	     55.68053599	     17.23277276	     27.84000706	     75.13914624	     43.72941226	    -21.40749802	    -12.52134641	     41.34954133	     -2.61389939	      3.55854172	     98.53749691	     88.26719018	     -5.14803697	     -2.90285665
